<svg width="52" height="40" viewBox="0 0 52 40" fill="none" xmlns="http://www.w3.org/2000/svg">
<path d="M33.7924 0.000959752L33.7914 0L24.407 13.5584L24.4042 13.5526L22.9629 15.6339L18.3302 22.321L18.3293 22.3219L4.5233 2.36912H13.7839L21.4929 13.3492C22.3373 12.1316 22.3363 10.5186 21.491 9.30185L15.0265 0H0L16.8871 24.4003L17.9646 22.8459L16.8871 24.4013L18.3379 26.4969L19.7791 24.4157L35.0302 2.36912H44.2937L24.407 31.1037L21.513 26.7723C20.6437 28.0255 20.6341 29.6836 21.4881 30.9473L24.407 35.2653L48.8141 0.000959752H33.7924Z" fill="url(#paint0_linear_425_36)"/>
<path d="M26.0076 11.2459L24.407 13.5574L24.4042 13.5517L22.9629 15.6329L18.3302 22.32L18.3293 22.321L4.5233 2.36912H13.7839L21.4929 13.3492C22.3373 12.1316 22.3363 10.5186 21.491 9.30185L15.0265 0H0L16.8871 24.4003L17.9646 22.8459L16.8871 24.4013L18.3379 26.4969L19.7791 24.4157L27.4613 13.3099L26.0076 11.2459Z" fill="url(#paint1_linear_425_36)"/>
<path d="M32.1343 19.9394L24.407 31.1037L21.513 26.7723C20.6437 28.0255 20.6341 29.6836 21.4881 30.9473L24.407 35.2653L33.587 22.0015L32.1343 19.9394Z" fill="url(#paint2_linear_425_36)"/>
<path d="M5.29288 32.3747C5.29288 32.4082 5.29096 32.4428 5.28808 32.4793C5.28424 32.5157 5.27944 32.5541 5.27273 32.5934C5.26601 32.627 5.2545 32.7124 5.23818 32.8516C5.22187 32.9907 5.19692 33.1826 5.16334 33.4273L4.34964 38.8286C4.28343 39.3247 4.10112 39.6663 3.80366 39.8514C3.64438 39.9503 3.43327 40.0002 3.16844 40.0002C2.9036 40.0002 2.69538 39.9541 2.54282 39.861C2.24536 39.6691 2.05632 39.3247 1.97668 38.8286L1.16203 33.4273C1.11597 33.0761 1.08622 32.865 1.07279 32.7921C1.05936 32.6865 1.04976 32.5982 1.04304 32.5291C1.03633 32.4601 1.03345 32.4082 1.03345 32.3756V32.1971H2.45358V32.3756C2.45358 32.4418 2.46317 32.5579 2.48332 32.723C2.50347 32.889 2.5361 33.1039 2.58216 33.3687L3.16748 37.2712L3.7528 33.3687L3.87179 32.3756V32.1971H5.29192V32.3747H5.29288Z" fill="#7F5C9A"/>
<path d="M7.07955 34.3297H5.65942V33.6149H7.07955V34.3297ZM7.07955 35.035V39.9997H5.65942V35.035H7.07955Z" fill="#7F5C9A"/>
<path d="M12.5604 39.9987H11.1403V36.9503C11.1403 36.719 11.1105 36.5031 11.051 36.3045C10.9915 36.1059 10.9349 35.9802 10.8822 35.9274C10.8294 35.8679 10.7584 35.8228 10.6691 35.793C10.5799 35.7633 10.5022 35.7489 10.436 35.7489C10.3832 35.7489 10.3083 35.7643 10.2124 35.793C10.1164 35.8228 10.0483 35.8612 10.009 35.9072C9.97538 35.9408 9.94275 35.9917 9.91013 36.0608C9.87655 36.1298 9.84584 36.2133 9.81609 36.3093C9.78635 36.4052 9.76332 36.5098 9.74701 36.6221C9.73069 36.7344 9.72206 36.8437 9.72206 36.9503V39.9987H8.31248V36.9503C8.31248 36.8447 8.30385 36.7353 8.28754 36.6221C8.27122 36.5098 8.24819 36.4052 8.21845 36.3093C8.1887 36.2133 8.15704 36.1308 8.12441 36.0608C8.09083 35.9917 8.0582 35.9399 8.02558 35.9072L7.67822 35.5493L8.93907 35.2317L9.06861 35.3507C9.2538 35.2586 9.46874 35.1818 9.71438 35.1223C9.95907 35.0628 10.2009 35.0331 10.4388 35.0331C10.5981 35.0331 10.7612 35.0475 10.9301 35.0772C11.099 35.107 11.2593 35.1463 11.4118 35.1962C11.5644 35.2461 11.7026 35.3037 11.8292 35.3699C11.9549 35.4361 12.0576 35.509 12.1372 35.5887C12.2697 35.7211 12.3742 35.9168 12.4501 36.1749C12.5259 36.4331 12.5642 36.6912 12.5642 36.9493V39.9987H12.5604Z" fill="#7F5C9A"/>
<path d="M17.3361 39.0958L16.9888 39.4527C16.9091 39.5324 16.8065 39.6053 16.6808 39.6715C16.5551 39.7377 16.4179 39.7953 16.2691 39.8452C16.1204 39.8951 15.9611 39.9335 15.7922 39.9594C15.6233 39.9863 15.4564 39.9987 15.2904 39.9987C14.9526 39.9987 14.6254 39.9459 14.3078 39.8394C13.9768 39.7339 13.7417 39.6082 13.6025 39.4623C13.4567 39.3165 13.3463 39.115 13.2696 38.8569C13.1938 38.5987 13.1554 38.3406 13.1554 38.0825V36.8908C13.1621 36.6461 13.2053 36.3995 13.284 36.1509C13.3636 35.9024 13.4663 35.7153 13.592 35.5896C13.6716 35.51 13.7724 35.437 13.8952 35.3708C14.018 35.3046 14.1552 35.247 14.3069 35.1972C14.4594 35.1473 14.6197 35.1079 14.7885 35.0782C14.9574 35.0484 15.1244 35.034 15.2904 35.034C15.4497 35.034 15.6128 35.0484 15.7817 35.0782C15.9506 35.1079 16.1108 35.1473 16.2634 35.1972C16.4159 35.247 16.5541 35.3046 16.6808 35.3708C16.8065 35.437 16.9091 35.51 16.9888 35.5896C17.1212 35.722 17.2258 35.9053 17.3016 36.1404C17.3774 36.3755 17.4158 36.599 17.4158 36.8101C17.4158 36.9099 17.4062 37.0174 17.386 37.1326C17.3659 37.2487 17.3381 37.3628 17.3016 37.4751C17.2651 37.5874 17.2191 37.6939 17.1625 37.7927C17.1058 37.8925 17.0416 37.9779 16.9686 38.0508C16.8228 38.19 16.5877 38.3128 16.2634 38.4184C15.9525 38.5239 15.6281 38.5776 15.2904 38.5776C15.0323 38.5776 14.8068 38.5546 14.6149 38.5085C14.6811 38.8194 14.7569 39.0248 14.8432 39.1246C14.8893 39.1706 14.9622 39.2109 15.062 39.2436C15.1608 39.2771 15.2376 39.2935 15.2904 39.2935C15.3499 39.2935 15.4247 39.2781 15.514 39.2484C15.6032 39.2186 15.6713 39.1802 15.7174 39.1342L16.0753 38.7763L17.3361 39.0958ZM14.7598 36.0627C14.73 36.1317 14.7003 36.2152 14.6705 36.3112C14.6408 36.4071 14.6177 36.5117 14.6014 36.624C14.5851 36.7363 14.5765 36.8457 14.5765 36.9522V36.9915C14.5765 37.1105 14.6043 37.2429 14.6609 37.3888C14.7175 37.5346 14.7818 37.644 14.8548 37.716C14.8941 37.7495 14.9574 37.7841 15.0438 37.8206C15.1301 37.857 15.2127 37.8752 15.2923 37.8752C15.3518 37.8752 15.4266 37.8599 15.5159 37.8301C15.6051 37.8004 15.6761 37.7591 15.7289 37.7064C15.7884 37.6469 15.8479 37.5279 15.9074 37.3494C15.9669 37.1709 15.9966 36.9915 15.9966 36.813C15.9966 36.7267 15.988 36.6365 15.9717 36.5396C15.9554 36.4436 15.9333 36.3544 15.9074 36.2718C15.8805 36.1893 15.8508 36.1164 15.8181 36.0531C15.7846 35.9907 15.7548 35.9456 15.7289 35.9187C15.6828 35.866 15.6147 35.8247 15.5255 35.795C15.4362 35.7652 15.3585 35.7508 15.2923 35.7508C15.2395 35.7508 15.1647 35.7662 15.0687 35.795C14.9728 35.8247 14.9018 35.8631 14.8548 35.9091C14.8212 35.9418 14.7895 35.9926 14.7598 36.0627Z" fill="#7F5C9A"/>
<path d="M21.2184 39.6811C20.8077 39.8932 20.351 39.9987 19.8482 39.9987C19.5104 39.9987 19.1832 39.9459 18.8656 39.8394C18.5346 39.7339 18.2995 39.6082 18.1603 39.4623C18.0212 39.3232 17.9137 39.1361 17.8379 38.901C17.7621 38.6659 17.7238 38.4423 17.7238 38.2303C17.7238 38.1314 17.7334 38.023 17.7535 37.9079C17.7737 37.7918 17.8015 37.6776 17.8379 37.5653C17.8744 37.453 17.9185 37.3465 17.9723 37.2477C18.0251 37.1489 18.0884 37.0625 18.1613 36.9896C18.3004 36.8504 18.5355 36.7247 18.8666 36.6125C19.1842 36.5069 19.5124 36.4532 19.8492 36.4532C20.0478 36.4532 20.2694 36.4801 20.5141 36.5328C20.4613 36.2085 20.3817 36.0003 20.2762 35.9072C20.2368 35.8612 20.1716 35.8228 20.0823 35.793C19.9931 35.7633 19.9154 35.7489 19.8492 35.7489C19.7964 35.7489 19.7215 35.7642 19.6256 35.793C19.5296 35.8228 19.4615 35.8612 19.4222 35.9072L19.0642 36.2546L17.7938 35.937L18.1517 35.5896C18.2314 35.51 18.3321 35.437 18.4549 35.3708C18.5778 35.3046 18.715 35.247 18.8666 35.1972C19.0191 35.1473 19.1794 35.1079 19.3483 35.0782C19.5171 35.0484 19.6841 35.034 19.8501 35.034C20.0094 35.034 20.1725 35.0484 20.3414 35.0782C20.5103 35.1079 20.6705 35.1473 20.8231 35.1972C20.9757 35.247 21.1138 35.3046 21.2405 35.3708C21.3662 35.437 21.4689 35.51 21.5485 35.5896C21.6809 35.722 21.7855 35.9178 21.8613 36.1759C21.9371 36.434 21.9755 36.6921 21.9755 36.9502V38.2312C21.9755 38.3176 21.9841 38.4068 22.0005 38.499C22.0168 38.592 22.0398 38.6793 22.0695 38.7619C22.0993 38.8444 22.129 38.9192 22.1588 38.9854C22.1885 39.0517 22.2202 39.1015 22.2528 39.1342L22.6107 39.4815L21.3374 39.8001L21.2184 39.6811ZM20.4594 38.758C20.5218 38.5661 20.5535 38.3675 20.5535 38.1622C20.5535 37.9971 20.5218 37.8292 20.4594 37.6603C20.3961 37.4914 20.3385 37.384 20.2857 37.3379C20.2397 37.2851 20.1677 37.2419 20.0727 37.2093C19.9768 37.1767 19.9019 37.1594 19.8492 37.1594C19.7897 37.1594 19.7148 37.1748 19.6256 37.2045C19.5363 37.2343 19.4615 37.2794 19.402 37.3389C19.3751 37.3657 19.3454 37.4099 19.3128 37.4732C19.2792 37.5365 19.2494 37.6095 19.2235 37.692C19.1967 37.7745 19.1755 37.8637 19.1592 37.9597C19.1429 38.0556 19.1343 38.1468 19.1343 38.2332C19.1343 38.3195 19.1429 38.4088 19.1592 38.5009C19.1755 38.5939 19.1986 38.6813 19.2283 38.7638C19.2581 38.8463 19.2897 38.9212 19.3224 38.9874C19.355 39.0536 19.3886 39.1035 19.4212 39.1361C19.4605 39.1754 19.5287 39.2119 19.6246 39.2455C19.7206 39.2791 19.7954 39.2954 19.8482 39.2954C19.9077 39.2954 19.9825 39.28 20.0718 39.2503C20.161 39.2205 20.2291 39.1821 20.2752 39.1361C20.3347 39.0756 20.3961 38.9499 20.4594 38.758Z" fill="#7F5C9A"/>
<path d="M32.3195 38.0825C32.3195 38.2015 32.3099 38.3272 32.2897 38.4596C32.2696 38.592 32.2417 38.7216 32.2053 38.8473C32.1688 38.973 32.1237 39.0891 32.0709 39.1946C32.0182 39.3002 31.9587 39.3865 31.8925 39.4527C31.8128 39.5324 31.7102 39.6053 31.5845 39.6715C31.4588 39.7377 31.3215 39.7953 31.1728 39.8452C31.0241 39.8951 30.8648 39.9335 30.6959 39.9594C30.527 39.9863 30.3601 39.9987 30.1941 39.9987C29.8563 39.9987 29.5291 39.946 29.2115 39.8394C28.8805 39.7339 28.6454 39.6082 28.5062 39.4623C28.3604 39.3165 28.25 39.115 28.1733 38.8569C28.0975 38.5988 28.0591 38.3406 28.0591 38.0825V34.1109C28.0591 33.992 28.0687 33.8663 28.0888 33.7338C28.109 33.6014 28.1368 33.4738 28.1733 33.3519C28.2097 33.2291 28.2539 33.1149 28.3076 33.0094C28.3604 32.9038 28.4237 32.8175 28.4966 32.7513C28.5763 32.6716 28.677 32.5987 28.7999 32.5325C28.9227 32.4663 29.0599 32.4087 29.2115 32.3588C29.3641 32.3089 29.5243 32.2696 29.6932 32.2398C29.8621 32.2101 30.029 32.1947 30.195 32.1947C30.3543 32.1947 30.5174 32.2101 30.6863 32.2398C30.8552 32.2696 31.0154 32.3089 31.168 32.3588C31.3206 32.4087 31.4588 32.4663 31.5854 32.5325C31.7111 32.5987 31.8138 32.6716 31.8934 32.7513L32.2408 33.1092L30.9799 33.4268L30.622 33.0698C30.5827 33.0305 30.5146 32.994 30.4186 32.9605C30.3227 32.9278 30.2478 32.9106 30.195 32.9106C30.1355 32.9106 30.0607 32.9259 29.9715 32.9557C29.8822 32.9854 29.8074 33.0267 29.7479 33.0794C29.7018 33.1255 29.6423 33.2579 29.5694 33.4767C29.5099 33.6887 29.4802 33.9008 29.4802 34.1119V38.0835C29.4802 38.3022 29.5099 38.5143 29.5694 38.7187C29.6423 38.9308 29.7047 39.0699 29.7584 39.1361C29.7978 39.1754 29.8678 39.2119 29.9667 39.2455C30.0655 39.2791 30.1423 39.2954 30.195 39.2954C30.2545 39.2954 30.3294 39.28 30.4186 39.2503C30.5078 39.2205 30.5789 39.1793 30.6316 39.1265C30.6585 39.0996 30.6873 39.0507 30.7209 38.9778C30.7535 38.9048 30.7832 38.8204 30.8101 38.7245C30.837 38.6285 30.8581 38.5249 30.8744 38.4116C30.8907 38.2994 30.8993 38.19 30.8993 38.0835V36.2469C30.8993 36.1279 30.8811 36.0272 30.8446 35.9437C30.8082 35.8612 30.7669 35.7969 30.7209 35.7499H30.195V35.035H30.9003C31.3177 35.035 31.6583 35.1473 31.9232 35.3728C32.188 35.5982 32.3204 35.889 32.3204 36.2469V38.0825H32.3195Z" fill="#7F5C9A"/>
<path d="M34.3346 39.9987H32.9144V32.1947H34.3346V39.9987Z" fill="#7F5C9A"/>
<path d="M39.1898 38.0825C39.1898 38.2015 39.1802 38.3272 39.1601 38.4596C39.1399 38.592 39.1121 38.7216 39.0756 38.8473C39.0392 38.973 38.9941 39.0891 38.9413 39.1946C38.8885 39.3002 38.829 39.3865 38.7628 39.4527C38.6832 39.5324 38.5805 39.6053 38.4548 39.6715C38.3291 39.7377 38.1919 39.7953 38.0432 39.8452C37.8944 39.8951 37.7352 39.9335 37.5663 39.9594C37.3974 39.9863 37.2304 39.9987 37.0644 39.9987C36.7267 39.9987 36.3995 39.9459 36.0819 39.8394C35.7508 39.7339 35.5157 39.6082 35.3766 39.4623C35.2307 39.3165 35.1204 39.115 35.0436 38.8569C34.9678 38.5987 34.9294 38.3406 34.9294 38.0825V36.9502C34.9294 36.6988 34.9678 36.4426 35.0436 36.1807C35.1194 35.9197 35.2279 35.722 35.366 35.5896C35.4457 35.51 35.5464 35.437 35.6693 35.3708C35.7921 35.3046 35.9293 35.247 36.0809 35.1972C36.2335 35.1473 36.3937 35.1079 36.5626 35.0782C36.7315 35.0484 36.8984 35.034 37.0644 35.034C37.2237 35.034 37.3868 35.0484 37.5557 35.0782C37.7246 35.1079 37.8848 35.1473 38.0374 35.1972C38.19 35.247 38.3282 35.3046 38.4548 35.3708C38.5805 35.437 38.6832 35.51 38.7628 35.5896C38.8953 35.722 38.9998 35.9178 39.0756 36.1759C39.1515 36.434 39.1898 36.6921 39.1898 36.9502V38.0825ZM37.6709 36.315C37.6114 36.103 37.5548 35.9705 37.502 35.9178C37.4559 35.865 37.3878 35.8237 37.2986 35.794C37.2093 35.7642 37.1316 35.7499 37.0654 35.7499C37.0126 35.7499 36.9378 35.7652 36.8418 35.794C36.7459 35.8237 36.671 35.865 36.6182 35.9178C36.5722 35.9638 36.5127 36.0962 36.4398 36.315C36.3803 36.5271 36.3505 36.7391 36.3505 36.9502V38.0825C36.3505 38.3013 36.3803 38.5133 36.4398 38.7177C36.5127 38.9298 36.5751 39.0689 36.6288 39.1351C36.6681 39.1745 36.7382 39.2109 36.837 39.2445C36.9359 39.2781 37.0126 39.2944 37.0654 39.2944C37.1249 39.2944 37.1997 39.2791 37.289 39.2493C37.3782 39.2196 37.4492 39.1783 37.502 39.1255C37.5289 39.0987 37.5576 39.0497 37.5912 38.9768C37.6239 38.9039 37.6536 38.8194 37.6805 38.7235C37.7073 38.6275 37.7284 38.5239 37.7448 38.4107C37.7611 38.2984 37.7697 38.189 37.7697 38.0825V36.9502C37.7697 36.7257 37.7371 36.5136 37.6709 36.315Z" fill="#7F5C9A"/>
<path d="M44.2237 38.0825C44.2237 38.2015 44.2141 38.3272 44.1939 38.4596C44.1738 38.592 44.146 38.7216 44.1095 38.8473C44.073 38.973 44.0279 39.0891 43.9752 39.1946C43.9224 39.3002 43.8629 39.3865 43.7967 39.4528C43.717 39.5324 43.6144 39.6053 43.4887 39.6715C43.363 39.7377 43.2258 39.7953 43.077 39.8452C42.9283 39.8951 42.769 39.9335 42.6001 39.9594C42.4312 39.9863 42.2643 39.9987 42.0983 39.9987C41.5955 39.9987 41.1387 39.8932 40.728 39.6811L40.5995 39.8001L39.3386 39.4825L39.686 39.1351C39.7186 39.1025 39.7522 39.0488 39.7858 38.9759C39.8184 38.9029 39.8501 38.8185 39.8798 38.7225C39.9096 38.6266 39.9326 38.5239 39.9489 38.4145C39.9652 38.3051 39.9738 38.1948 39.9738 38.0816V34.11C39.9738 33.8519 40.0103 33.5957 40.0832 33.3404C40.1562 33.0852 40.2617 32.8885 40.4008 32.7494L40.7482 32.3914L42.0196 32.7091L41.6722 33.067C41.6387 33.1006 41.606 33.1514 41.5734 33.2205C41.5398 33.2896 41.5091 33.3731 41.4794 33.469C41.4496 33.565 41.4266 33.6696 41.4103 33.7818C41.394 33.8941 41.3853 34.0035 41.3853 34.109V35.1214C41.6233 35.0619 41.8622 35.0321 42.1002 35.0321C42.2595 35.0321 42.4226 35.0465 42.5915 35.0763C42.7604 35.106 42.9206 35.1453 43.0732 35.1952C43.2257 35.2451 43.3649 35.3027 43.4906 35.3689C43.6163 35.4351 43.719 35.5081 43.7986 35.5877C43.931 35.7201 44.0356 35.9159 44.1114 36.174C44.1872 36.4321 44.2256 36.6902 44.2256 36.9483V38.0825H44.2237ZM42.7143 36.3054C42.6548 36.1068 42.5982 35.9811 42.5454 35.9283C42.4927 35.8688 42.4216 35.8237 42.3324 35.794C42.2432 35.7643 42.1655 35.7499 42.0992 35.7499C42.0465 35.7499 41.9716 35.7652 41.8757 35.794C41.7797 35.8237 41.7116 35.8621 41.6722 35.9082C41.6387 35.9418 41.606 35.9926 41.5734 36.0617C41.5398 36.1308 41.5091 36.2143 41.4794 36.3102C41.4496 36.4062 41.4266 36.5108 41.4103 36.6231C41.394 36.7353 41.3853 36.8447 41.3853 36.9512V38.0835C41.3853 38.3023 41.4151 38.5143 41.4746 38.7187C41.5475 38.9375 41.6137 39.0766 41.6732 39.1361C41.7125 39.1754 41.7807 39.2119 41.8766 39.2455C41.9726 39.2791 42.0474 39.2954 42.1002 39.2954C42.1597 39.2954 42.2345 39.28 42.3238 39.2503C42.413 39.2205 42.484 39.1793 42.5377 39.1265C42.5905 39.0737 42.6471 38.9375 42.7066 38.7197C42.7728 38.5143 42.8055 38.3023 42.8055 38.0844V36.9522C42.8035 36.719 42.7738 36.5041 42.7143 36.3054Z" fill="#7F5C9A"/>
<path d="M48.3141 39.6811C47.9034 39.8932 47.4467 39.9987 46.9439 39.9987C46.6061 39.9987 46.2789 39.9459 45.9613 39.8394C45.6303 39.7339 45.3952 39.6082 45.2561 39.4623C45.1169 39.3232 45.0094 39.1361 44.9336 38.901C44.8578 38.6659 44.8195 38.4423 44.8195 38.2303C44.8195 38.1314 44.8291 38.023 44.8492 37.9079C44.8694 37.7918 44.8972 37.6776 44.9336 37.5653C44.9701 37.453 45.0142 37.3465 45.068 37.2477C45.1208 37.1489 45.1841 37.0625 45.257 36.9896C45.3961 36.8504 45.6312 36.7247 45.9623 36.6125C46.2799 36.5069 46.6081 36.4532 46.9449 36.4532C47.1435 36.4532 47.3651 36.4801 47.6098 36.5328C47.557 36.2085 47.4774 36.0003 47.3719 35.9072C47.3325 35.8612 47.2673 35.8228 47.178 35.793C47.0888 35.7633 47.0111 35.7489 46.9449 35.7489C46.8921 35.7489 46.8172 35.7642 46.7213 35.793C46.6253 35.8228 46.5572 35.8612 46.5179 35.9072L46.1599 36.2546L44.8885 35.937L45.2465 35.5896C45.3261 35.51 45.4268 35.437 45.5497 35.3708C45.6725 35.3046 45.8097 35.247 45.9613 35.1972C46.1139 35.1473 46.2741 35.1079 46.443 35.0782C46.6119 35.0484 46.7789 35.034 46.9449 35.034C47.1041 35.034 47.2673 35.0484 47.4361 35.0782C47.605 35.1079 47.7653 35.1473 47.9178 35.1972C48.0704 35.247 48.2095 35.3046 48.3352 35.3708C48.4609 35.437 48.5636 35.51 48.6432 35.5896C48.7757 35.722 48.8803 35.9178 48.9561 36.1759C49.0319 36.434 49.0702 36.6921 49.0702 36.9502V38.2312C49.0702 38.3176 49.0789 38.4068 49.0952 38.499C49.1115 38.592 49.1345 38.6793 49.1643 38.7619C49.194 38.8444 49.2238 38.9192 49.2535 38.9854C49.2833 39.0517 49.3149 39.1015 49.3476 39.1342L49.7055 39.4815L48.4331 39.8001L48.3141 39.6811ZM47.5551 38.758C47.6185 38.5661 47.6492 38.3675 47.6492 38.1622C47.6492 37.9971 47.6175 37.8292 47.5551 37.6603C47.4918 37.4914 47.4342 37.384 47.3814 37.3379C47.3354 37.2851 47.2634 37.2419 47.1684 37.2093C47.0725 37.1767 46.9976 37.1594 46.9449 37.1594C46.8854 37.1594 46.8105 37.1748 46.7213 37.2045C46.632 37.2343 46.5572 37.2794 46.4977 37.3389C46.4708 37.3657 46.4411 37.4099 46.4085 37.4732C46.3749 37.5365 46.3451 37.6095 46.3192 37.692C46.2924 37.7745 46.2713 37.8637 46.2549 37.9597C46.2386 38.0556 46.23 38.1468 46.23 38.2332C46.23 38.3195 46.2386 38.4088 46.2549 38.5009C46.2713 38.5939 46.2943 38.6813 46.324 38.7638C46.3538 38.8463 46.3854 38.9212 46.4181 38.9874C46.4507 39.0536 46.4843 39.1035 46.5179 39.1361C46.5572 39.1754 46.6253 39.2119 46.7213 39.2455C46.8172 39.2791 46.8921 39.2954 46.9449 39.2954C47.0043 39.2954 47.0792 39.28 47.1684 39.2503C47.2577 39.2205 47.3258 39.1821 47.3719 39.1361C47.4304 39.0756 47.4918 38.9499 47.5551 38.758Z" fill="#7F5C9A"/>
<path d="M51.7196 39.9987H50.2994V32.1947H51.7196V39.9987Z" fill="#7F5C9A"/>
<path d="M15.9504 22.9619L17.8763 25.7446" stroke="#7F5C9A" stroke-miterlimit="10"/>
<path d="M35.8353 27.2732C37.242 27.2454 38.6631 27.1369 40.0707 26.732C40.7693 26.519 41.4813 26.2436 42.1078 25.7082C42.4168 25.4404 42.698 25.0921 42.8717 24.6719C42.9571 24.4607 43.0012 24.2372 43.0348 24.0117L43.0444 23.6739C43.0444 23.5617 43.0233 23.4551 43.0117 23.3448C42.9407 22.9168 42.7968 22.5129 42.602 22.1674C42.5137 21.9842 42.3986 21.8297 42.2969 21.6598C42.1827 21.5073 42.0723 21.3451 41.9505 21.2002C41.4697 20.612 40.9295 20.1054 40.3682 19.639C39.2388 18.714 38.0192 17.9531 36.7728 17.2584C35.5254 16.5637 34.2386 15.9572 32.9346 15.3959C30.3179 14.2953 27.6206 13.4125 24.8782 12.6967C22.1339 11.9866 19.3464 11.3994 16.4899 11.0693C15.0592 10.9206 13.6131 10.8352 12.1431 10.8956C10.674 10.9551 9.18579 11.1374 7.65723 11.6278C7.46724 11.6892 7.27533 11.7611 7.08246 11.8427C6.89151 11.9147 6.69673 12.0106 6.50386 12.1047C6.31195 12.1949 6.11524 12.3186 5.92333 12.43C5.72854 12.5681 5.53663 12.6833 5.3476 12.8579C5.15857 13.0105 4.97626 13.2091 4.80354 13.4087C4.63658 13.6323 4.47441 13.8587 4.35255 14.1331C4.10019 14.6638 3.9956 15.2971 4.06948 15.8575C4.13569 16.4217 4.33144 16.8995 4.55693 17.3035C4.78339 17.7084 5.0511 18.0452 5.32649 18.3513C5.87727 18.9635 6.48083 19.4375 7.09494 19.8655C8.32699 20.7118 9.63102 21.3365 10.9494 21.8796C12.2784 22.4025 15.1244 23.0713 15.1244 23.0713C15.1244 23.0713 12.7102 21.4574 11.5751 20.6888C10.4342 19.9374 9.34412 19.119 8.39321 18.2381C8.03433 17.9051 7.6486 17.5981 7.37033 17.1893C7.08342 16.7661 6.91166 16.2499 7.06999 15.7442C7.2475 15.1771 7.77909 14.7847 8.33467 14.5736C9.41033 14.1658 10.6117 14.0497 11.7507 13.9835C11.9234 13.9739 12.0971 13.9652 12.2698 13.9604C12.9242 13.9336 13.5872 13.9144 14.2541 13.9268C14.92 13.9268 15.5908 13.947 16.2624 13.9777C18.9521 14.0938 21.6685 14.4268 24.339 14.9919C27.0103 15.5552 29.6539 16.2825 32.2159 17.22C33.4969 17.6854 34.7635 18.194 35.984 18.7841C37.2036 19.3723 38.3944 20.0257 39.4662 20.8049C40.0016 21.1916 40.5102 21.6109 40.942 22.0724C41.3738 22.5292 41.7221 23.0502 41.8401 23.5549C41.9716 24.0587 41.8075 24.5289 41.3987 24.9376C40.9919 25.3445 40.3989 25.6439 39.7857 25.8722C38.5422 26.3271 37.171 26.5324 35.8055 26.6524C34.4353 26.7742 31.5029 26.8193 31.5029 26.8193C31.5029 26.8193 34.4257 27.2866 35.8353 27.2732Z" fill="url(#paint3_linear_425_36)"/>
<path d="M8.39321 18.2371C9.34413 19.118 10.4342 19.9365 11.5751 20.6878C12.7102 21.4574 15.1244 23.0704 15.1244 23.0704C15.1244 23.0704 2.93147 18.857 6.49715 14.1399C6.49715 14.1399 10.3133 9.74516 28.5408 14.9469C33.495 16.3478 42.4044 20.8414 41.8392 23.5521C41.7212 23.0474 41.3728 22.5263 40.941 22.0696C40.5083 21.608 40.0007 21.1897 39.4653 20.802C38.3934 20.0229 37.2026 19.3694 35.9831 18.7812C34.7625 18.1911 33.4959 17.6825 32.2149 17.2171C29.6539 16.2806 27.0094 15.5523 24.338 14.9891C21.6676 14.4239 18.9511 14.0919 16.2615 13.9748C15.5898 13.9441 14.9191 13.924 14.2532 13.924C13.5863 13.9115 12.9242 13.9307 12.2688 13.9576C12.0961 13.9633 11.9224 13.971 11.7497 13.9806C10.6107 14.0468 9.41033 14.162 8.33372 14.5707C7.77814 14.7818 7.24656 15.1733 7.06904 15.7414C6.91071 16.247 7.08247 16.7633 7.36938 17.1864C7.6486 17.5971 8.03434 17.9042 8.39321 18.2371Z" fill="url(#paint4_linear_425_36)"/>
<defs>
<linearGradient id="paint0_linear_425_36" x1="12.4299" y1="-6.54756" x2="38.1166" y2="19.1392" gradientUnits="userSpaceOnUse">
<stop offset="2.02456e-07" stop-color="#2A602F"/>
<stop offset="0.3446" stop-color="#468E4B"/>
<stop offset="0.6053" stop-color="#7F5C9A"/>
<stop offset="1" stop-color="#533267"/>
</linearGradient>
<linearGradient id="paint1_linear_425_36" x1="8.92436" y1="13.4191" x2="25.6222" y2="1.83138" gradientUnits="userSpaceOnUse">
<stop stop-color="white" stop-opacity="0"/>
<stop offset="1" stop-color="white"/>
</linearGradient>
<linearGradient id="paint2_linear_425_36" x1="21.73" y1="31.872" x2="38.4278" y2="20.2843" gradientUnits="userSpaceOnUse">
<stop stop-color="white" stop-opacity="0"/>
<stop offset="1" stop-color="white"/>
</linearGradient>
<linearGradient id="paint3_linear_425_36" x1="4.0045" y1="18.816" x2="43.0984" y2="19.3125" gradientUnits="userSpaceOnUse">
<stop stop-color="#EEBF1B"/>
<stop offset="1" stop-color="#F1DC8E"/>
</linearGradient>
<linearGradient id="paint4_linear_425_36" x1="5.82184" y1="17.7015" x2="41.9295" y2="18.1602" gradientUnits="userSpaceOnUse">
<stop stop-color="#F1DC8E" stop-opacity="0"/>
<stop offset="0.0455" stop-color="#F1D881" stop-opacity="0.098"/>
<stop offset="0.1786" stop-color="#F0CD5A" stop-opacity="0.3841"/>
<stop offset="0.2976" stop-color="#EFC539" stop-opacity="0.6401"/>
<stop offset="0.3971" stop-color="#EEC123" stop-opacity="0.8541"/>
<stop offset="0.4649" stop-color="#EEBF1B"/>
<stop offset="1" stop-color="#F1DC8E" stop-opacity="0"/>
</linearGradient>
</defs>
</svg>
